HIERARCHY
ROOT Hips
{
  OFFSET 2.26061 22.2878 23.7974
  CHANNELS 6 Xposition Yposition Zposition Zrotation Xrotation Yrotation
  JOINT LeftUpLeg
  {
    OFFSET 8.64259 1.95398 -2.38835
    CHANNELS 3 Zrotation Xrotation Yrotation
    JOINT LeftLeg
    {
      OFFSET 43.7702 0 0
      CHANNELS 3 Zrotation Xrotation Yrotation
      JOINT LeftFoot
      {
        OFFSET 40.6238 0 0
        CHANNELS 3 Zrotation Xrotation Yrotation
        JOINT LeftToeBase
        {
          OFFSET 12.7242 0 0
          CHANNELS 3 Zrotation Xrotation Yrotation
          End Site
          {
            OFFSET 0 0 0
          }
        }
      }
    }
  }
  JOINT RightUpLeg
  {
    OFFSET -8.2249 1.95398 -2.59336
    CHANNELS 3 Zrotation Xrotation Yrotation
    JOINT RightLeg
    {
      OFFSET 43.5653 0 0
      CHANNELS 3 Zrotation Xrotation Yrotation
      JOINT RightFoot
      {
        OFFSET 40.6238 0 0
        CHANNELS 3 Zrotation Xrotation Yrotation
        JOINT RightToeBase
        {
          OFFSET 12.7242 0 0
          CHANNELS 3 Zrotation Xrotation Yrotation
          End Site
          {
            OFFSET 0 0 0
          }
        }
      }
    }
  }
  JOINT Spine
  {
    OFFSET 0.165834 0.87714 6.61349
    CHANNELS 3 Zrotation Xrotation Yrotation
    JOINT Spine1
    {
      OFFSET 7.38963 1.71661e-005 0
      CHANNELS 3 Zrotation Xrotation Yrotation
      JOINT Spine2
      {
        OFFSET 11.9445 1.14441e-005 0
        CHANNELS 3 Zrotation Xrotation Yrotation
        JOINT Spine3
        {
          OFFSET 14.7254 4.19617e-005 0
          CHANNELS 3 Zrotation Xrotation Yrotation
          JOINT Spine4
          {
            OFFSET 10.9679 0 0
            CHANNELS 3 Zrotation Xrotation Yrotation
            JOINT RightShoulder
            {
              OFFSET 2.46616 -1.6653 3.69651
              CHANNELS 3 Zrotation Xrotation Yrotation
              JOINT RightArm
              {
                OFFSET 13.0012 0 0
                CHANNELS 3 Zrotation Xrotation Yrotation
                JOINT RightForeArm
                {
                  OFFSET 28.7848 1.52588e-005 0
                  CHANNELS 3 Zrotation Xrotation Yrotation
                  JOINT RightHand
                  {
                    OFFSET 26.5688 1.52588e-005 0
                    CHANNELS 3 Zrotation Xrotation Yrotation
                    End Site
                    {
                      OFFSET 0 0 0
                    }
                  }
                }
              }
            }
            JOINT LeftShoulder
            {
              OFFSET 2.38034 -1.29275 -3.7523
              CHANNELS 3 Zrotation Xrotation Yrotation
              JOINT LeftArm
              {
                OFFSET 16.3182 6.10351e-005 0
                CHANNELS 3 Zrotation Xrotation Yrotation
                JOINT LeftForeArm
                {
                  OFFSET 27.0901 0 0
                  CHANNELS 3 Zrotation Xrotation Yrotation
                  JOINT LeftHand
                  {
                    OFFSET 24.5451 1.52588e-005 0
                    CHANNELS 3 Zrotation Xrotation Yrotation
                    End Site
                    {
                      OFFSET 0 0 0
                    }
                  }
                }
              }
            }
            JOINT Neck
            {
              OFFSET 5.0226 -0.0266342 0
              CHANNELS 3 Zrotation Xrotation Yrotation
              JOINT Head
              {
                OFFSET 6.69363 2.86102e-005 0
                CHANNELS 3 Zrotation Xrotation Yrotation
                End Site
                {
                  OFFSET 0 0 0
                }
              }
            }
          }
        }
      }
    }
  }
}
MOTION
Frames:	14
Frame Time:	0.0416667
345.309 78.9341 225.167 -61.0226 9.15684 83.0378 20.4761 28.8962 -96.7397 -42.5767 51.6674 8.646 -41.957 -2.24112 -66.3503 -178.394 29.4943 -68.6795 13.885 27.0654 -99.3487 -47.8678 -5.35597 13.922 128.219 -28.1771 -0.493816 142.965 81.3861 59.3396 -1.32993 0.359042 -103.889 24.2434 -10.4742 -25.983 12.3644 -11.5708 -25.5404 -8.16209 -2.51691 -27.7733 11.8506 -2.51693 -27.7733 117.769 42.5202 -165.046 60.124 -22.7702 -64.4564 -10.9438 0.228145 -29.462 -0.352083 -0.0572195 -0.192013 -39.5564 -35.6481 161.556 -25.0107 12.6046 -37.0259 87.1013 78.4507 -99.552 -24.4821 9.0477 -48.858 135.811 -84.5829 78.2551 3.73947 32.5766 -171.629 
345.625 79.2878 225.616 -59.1963 10.0737 82.4238 20.2134 30.326 -97.2696 -40.4916 51.9287 7.67675 -43.536 -2.20333 -67.2222 -178.032 29.6218 -68.7229 13.3942 27.3209 -99.8589 -48.3717 -7.63412 13.7027 127.836 -28.0281 -0.618571 -170.161 62.4867 10.3357 -1.14044 0.9955 -97.6442 29.8735 -7.04812 -14.7777 18.2379 -7.70273 -14.464 -4.63179 -2.14117 -16.1383 15.3808 -2.14117 -16.1383 148.159 40.7754 159.438 55.2828 -17.8362 -55.0778 -9.39571 -2.65741 -31.7329 -3.3903 -0.301686 3.44163 -68.35 -24.4405 120.791 -26.8272 15.0198 -42.9059 87.8514 80.7228 -99.934 -26.4182 11.322 -54.4686 -112.169 -83.6345 -167.409 -8.18858 62.3343 -163.821 
346.877 80.2493 226.924 -54.1118 11.0753 79.9076 20.4402 34.8026 -98.2012 -35.5135 53.6948 5.69652 -49.2647 -5.94523 -69.8827 -177.396 29.8769 -68.7909 12.8665 29.494 -100.093 -48.7273 -12.1467 12.7639 126.15 -27.5156 -1.11546 -165.955 31.844 0.585148 -0.352727 0.769266 -86.2848 38.4887 2.84458 8.53848 26.8249 3.22819 8.40679 4.21363 0.0394175 8.97688 24.2263 0.0394093 8.97689 117.29 -63.7779 -72.3629 35.5903 5.40654 -24.8035 -8.86752 -9.03372 -37.9479 -3.80335 -0.455124 3.90718 -100.787 -0.763424 13.6912 -31.6896 21.4082 -39.126 25.1776 83.7276 -37.3165 -30.6425 15.4012 -61.1096 25.0673 -24.0466 -20.9128 144.463 -8.43771 -3.99721 
349.045 81.481 228.667 -40.7723 11.1651 75.3676 21.255 46.6186 -102.321 -29.3941 57.2997 4.22533 -61.6762 -15.7969 -73.4356 -176.796 30.8834 -68.6095 12.5161 38.4183 -102.029 -50.0919 -16.6717 11.1342 123.929 -26.7749 -1.74062 -169.094 17.8875 -1.76144 0.353818 -6.03114 -90.6961 37.8197 -0.224067 -2.51617 26.1436 -0.335091 -2.50391 3.64855 0.548012 -2.4664 23.6612 0.548019 -2.4664 102.375 -43.1192 -81.8421 39.7179 -3.76631 -15.9832 -8.38484 -16.1287 -37.841 -2.07929 -0.43313 2.82647 -111.014 -24.5264 32.7251 -18.9936 7.46708 -14.3566 7.11606 51.7736 -13.8512 -38.7 15.9125 -52.7203 5.8837 16.1856 -8.3461 139.7 13.999 -1.95709 
351.666 83.1511 230.425 -18.96 6.3871 70.0409 27.9781 64.6351 -113.464 -26.4696 51.2398 3.52328 -76.3474 -35.8298 -66.8032 -178.608 31.0638 -68.0956 16.0669 56.2484 -107.999 -51.5039 -19.868 9.31401 121.275 -25.754 -2.44972 -172.243 12.3481 -2.67325 0.331783 -3.62782 -90.0307 34.1311 0.589321 -0.314087 22.4602 0.574925 -0.339739 -0.0759602 0.656468 -0.122429 19.9367 0.656483 -0.12244 107.07 -48.4689 -74.2183 34.6698 -3.32399 -9.79771 -8.12656 -18.3766 -39.6903 -0.520682 -0.367752 1.28651 -116.027 -24.7999 24.2688 -18.8341 5.67805 -6.71054 -0.690424 5.31144 -8.88829 -19.295 2.2345 -19.9051 -6.86856 12.1268 -15.3408 140.359 24.4523 -3.58669 
352.839 85.0656 231.113 9.38522 -2.93997 69.0042 85.3711 80.7976 -176.948 -29.8492 38.7295 4.34027 -63.6882 -62.5763 -38.02 176.77 28.8544 -67.7422 49.4456 77.9792 -144.823 -54.3616 -21.508 7.779 118.905 -24.7968 -3.06713 -174.578 8.54622 -3.46337 -0.441526 -0.670518 -90.0752 28.2046 -1.0404 -0.351366 16.534 -1.05486 -0.305218 -6.00353 -0.886684 -0.647809 14.0091 -0.886709 -0.647815 102.222 -51.0929 -81.9026 32.1392 -3.47005 -4.81919 -9.21699 -20.824 -41.032 0.77986 -0.369757 1.9537 -115.532 -28.8793 28.4448 -21.4268 2.26935 -0.915686 -2.57613 -8.25342 -17.0438 -0.704786 -0.242927 -4.46799 -13.9139 16.4761 -17.0164 136.834 28.7385 -3.23511 
351.392 86.6182 230.357 39.9566 -12.6091 75.0788 161.693 67.0463 101.011 -37.3276 37.9933 6.0921 3.68413 -60.9799 29.8589 160.62 27.5137 -64.5147 149.032 68.3625 112.625 -57.8773 -21.6854 6.25763 116.686 -24.101 -3.61709 -176.175 3.56019 -4.79075 -1.38695 2.79045 -90.7871 21.2114 -3.00378 -0.39698 9.54373 -3.01833 -0.264279 -13.0136 -2.74556 -1.28195 6.99905 -2.74554 -1.28195 97.5353 -52.7112 -88.946 29.9574 -3.63667 -3.33496 -8.40755 -21.6866 -40.4857 0.242426 -0.399696 2.65976 -113.138 -32.8655 35.0981 -21.6647 3.25433 0.896584 -3.03704 -7.98164 -21.918 0.793432 -0.0343508 -1.90573 -14.9005 19.7188 -18.2531 128.676 31.7598 -1.85965 
349.174 87.7837 228.471 61.5424 -18.5529 83.9672 170.262 51.4141 92.2549 -45.8791 40.0554 8.30204 41.9221 -21.2447 44.0277 124.178 18.5367 -62.8835 159.499 48.89 102.07 -57.7052 -21.7379 5.48297 114.165 -23.1268 -4.11702 -177.708 -4.99433 -7.35045 -2.05406 5.52289 -90.6409 15.831 -4.38621 -0.626479 4.16748 -4.40955 -0.432471 -18.4182 -3.99487 -1.91775 1.59446 -3.99485 -1.91774 94.2034 -54.821 -93.641 27.6872 -3.68531 -4.80809 -7.86514 -21.6197 -41.0892 -2.90097 -0.608263 4.54997 -109.003 -34.4807 42.6062 -22.0503 5.58496 1.08082 -1.35049 -2.83813 -24.4649 -3.06799 -0.0791652 -4.60437 -12.8841 22.6946 -19.2564 124.402 32.0837 -2.95287 
347.437 87.7517 226.719 71.56 -23.306 89.8163 172.358 43.8811 94.551 -46.2585 44.558 9.48662 55.2902 -1.8452 32.9569 117.033 15.8663 -64.2011 163.097 37.083 100.752 -57.061 -22.1556 4.70059 114.362 -23.1011 -3.97099 178.471 -21.3361 -13.1891 -2.07338 6.8364 -90.602 13.1971 -4.40492 -0.655676 1.53357 -4.42951 -0.460799 -21.052 -4.00393 -1.9512 -1.03932 -4.00393 -1.95121 93.1548 -56.9112 -94.8468 24.9362 -5.32865 -7.23625 -7.37932 -22.1322 -43.7224 -6.976 -0.87645 4.85279 -105.138 -36.4158 49.8987 -20.7262 10.0488 1.7468 -1.00263 0.638832 -28.7242 -2.74456 -0.0905692 -4.35762 -8.34187 24.3829 -26.8764 102.876 40.5667 5.64075 
345.749 87.2718 225.362 75.8966 -27.9514 92.1703 173.858 41.6037 97.156 -42.7111 53.294 9.35553 55.5503 -2.72165 28.5517 135.34 14.6695 -69.4275 166.992 26.4338 99.336 -54.5675 -20.6549 3.83008 116.775 -23.9678 -3.27162 151.475 -53.4512 -40.4819 -1.62621 6.86343 -90.3429 13.1515 -3.39331 -0.272886 1.48495 -3.40203 -0.123098 -21.0819 -3.15429 -1.28109 -1.06921 -3.15431 -1.2811 93.5285 -59.1199 -93.999 22.4292 -7.16395 -6.47896 -8.9003 -22.7221 -48.391 -7.79868 -0.873716 3.97103 -102.208 -35.8489 54.3318 -26.445 11.5548 6.84335 -1.14194 0.841491 -31.0635 6.31642 0.235196 -0.233849 30.1292 -3.94155 -30.3471 -58.9005 -14.0229 29.9904 
343.298 86.9358 223.917 79.3252 -32.0474 92.9211 177.072 39.4694 97.5893 -33.4543 44.5245 5.46709 54.5839 -3.88034 15.6299 150.065 0.75205 -73.674 170.668 11.1792 97.894 -46.6183 -11.0123 2.93193 116.663 -24.5674 -2.97289 54.7819 -13.4702 -107.504 -0.93855 6.77355 -90.2649 13.3265 -1.99054 -0.285939 1.65717 -2.0012 -0.198025 -20.8885 -1.81251 -0.871132 -0.875892 -1.8125 -0.871136 94.632 -56.216 -92.8167 22.7641 -8.07475 -7.21827 -12.5144 -23.5904 -52.4215 -8.28897 -1.1012 6.17154 -101.038 -39.0943 57.6945 -30.2627 11.8349 10.6484 -0.701043 2.1988 -32.2468 15.1409 0.991534 2.71415 22.6355 -1.39606 -26.9516 -35.7998 -2.17348 30.5431 
340.038 87.5904 222.314 84.0228 -37.0462 92.3729 -177.915 32.846 95.9873 -21.1142 21.5725 1.63104 56.5548 0.300639 -1.98966 152.308 -9.37469 -86.2648 171.921 1.63819 94.9582 -43.5352 3.88216 1.56312 104.105 -19.686 -4.23228 37.4855 -0.841356 -40.7748 -0.221733 7.06129 -90.2409 12.7523 -0.555636 -0.415931 1.0814 -0.573377 -0.391078 -21.4538 -0.404951 -0.563684 -1.44111 -0.404942 -0.56369 94.3191 -52.154 -93.8539 21.418 -7.99388 -11.1036 -15.4564 -24.8377 -54.905 -10.1106 -1.18925 5.631 -99.0093 -46.5049 64.178 -27.755 13.8326 10.7154 0.0324427 5.21663 -32.6414 14.2761 1.08856 3.692 21.4999 -0.0493714 -13.9306 -16.5208 1.94508 20.9704 
335.055 89.0888 219.929 90.8177 -42.9521 92.6674 -175.066 21.8384 94.3591 -8.26282 2.0428 0.383588 49.4757 -0.106521 -11.5852 86.8103 -9.88672 -107.975 172.797 4.27736 91.3398 -49.1601 8.60906 -1.10326 83.939 -9.34916 -3.70276 64.3247 0.0312404 -7.05669 0.326477 7.26579 -90.0013 12.3427 0.648173 -0.0759683 0.671856 0.644215 -0.104428 -21.8646 0.641041 0.122362 -1.85191 0.641052 0.122355 90.7362 -51.515 -99.368 18.9591 -6.86618 -11.1182 -16.8895 -24.5299 -56.9484 -8.21487 -0.91452 3.63818 -100.344 -50.2076 63.5858 -27.9583 11.7468 14.0242 0.671468 5.19668 -31.1401 11.9044 0.906923 3.58196 9.05243 -0.675013 -1.27344 1.35954 -0.123164 6.19112 
327.858 90.6555 215.912 96.0343 -47.3086 94.541 -173.67 19.9073 93.6379 -8.08583 18.6654 -0.312604 31.3194 -20.0538 10.4344 66.0457 7.14001 -68.801 175.088 6.91022 91.7686 -50.2345 6.7695 -3.43259 80.0086 -7.65555 -3.26132 47.0325 2.18204 11.2853 0.661278 7.97789 -90.2559 10.9214 1.19822 -0.620635 -0.749163 1.16973 -0.672773 -23.2885 1.32935 -0.231772 -3.27589 1.32935 -0.231774 91.8897 -49.0539 -98.1064 17.5132 -5.91002 -16.3256 -14.5514 -24.6806 -55.1053 -8.03558 -0.922467 3.90789 -104.641 -56.6183 60.0574 -21.9382 11.3653 8.74614 -0.0121261 5.40432 -28.5205 11.9799 0.950508 3.88779 10.9297 0.118893 13.0235 5.75732 -3.1069 -6.26749 
